<svg width="24" height="24" viewBox="0 0 24 24" fill="none" xmlns="http://www.w3.org/2000/svg">
<path d="M23.3252 11.671C23.3252 18.0503 18.1537 23.2217 11.7744 23.2217C5.39509 23.2217 0.223633 18.0503 0.223633 11.671C0.223633 5.29164 5.39509 0.120178 11.7744 0.120178C18.1537 0.120178 23.3252 5.29164 23.3252 11.671Z" fill="#3A3A3A"/>
<path d="M6.60659 14.8033H7.04463V8.54559H6.60659C6.49243 8.54614 6.3831 8.59173 6.30237 8.67246C6.22165 8.75318 6.17605 8.86251 6.1755 8.97668V14.3652C6.17505 14.4223 6.18583 14.4789 6.20725 14.5318C6.22866 14.5847 6.26029 14.6329 6.30032 14.6735C6.34035 14.7142 6.388 14.7466 6.44055 14.7689C6.4931 14.7911 6.54952 14.8028 6.60659 14.8033Z" fill="#DDDDDD"/>
<path d="M8.47994 16.0648C8.56193 15.9828 8.60832 15.8718 8.60904 15.7558V7.58608C8.60686 7.47123 8.5598 7.3618 8.47792 7.28122C8.39605 7.20065 8.28588 7.15534 8.17101 7.155C8.05685 7.15555 7.94752 7.20114 7.86679 7.28186C7.78607 7.36259 7.74047 7.47192 7.73992 7.58608V15.7558C7.73946 15.8129 7.75025 15.8695 7.77167 15.9224C7.79308 15.9753 7.82471 16.0235 7.86474 16.0641C7.90477 16.1048 7.95242 16.1372 8.00497 16.1595C8.05752 16.1817 8.11394 16.1934 8.17101 16.1939C8.28696 16.1931 8.39795 16.1468 8.47994 16.0648Z" fill="#DDDDDD"/>
<path d="M15.685 16.0631C15.7665 15.9816 15.8123 15.8711 15.8123 15.7558V7.58608C15.8123 7.47083 15.7665 7.3603 15.685 7.2788C15.6035 7.1973 15.493 7.15152 15.3778 7.15152C15.2625 7.15152 15.152 7.1973 15.0705 7.2788C14.989 7.3603 14.9432 7.47083 14.9432 7.58608V15.7558C14.9432 15.8711 14.989 15.9816 15.0705 16.0631C15.152 16.1446 15.2625 16.1904 15.3778 16.1904C15.493 16.1904 15.6035 16.1446 15.685 16.0631Z" fill="#DDDDDD"/>
<path d="M17.345 14.5318C17.3664 14.4789 17.3772 14.4223 17.3767 14.3652V8.97668C17.3762 8.86251 17.3306 8.75318 17.2499 8.67246C17.1692 8.59173 17.0598 8.54614 16.9457 8.54559H16.5076V14.8033H16.9457C17.0027 14.8028 17.0591 14.7911 17.1117 14.7689C17.1642 14.7466 17.2119 14.7142 17.2519 14.6735C17.292 14.6329 17.3236 14.5847 17.345 14.5318Z" fill="#DDDDDD"/>
<path fill-rule="evenodd" clip-rule="evenodd" d="M11.7744 23.2217C18.1537 23.2217 23.3252 18.0503 23.3252 11.671C23.3252 5.29164 18.1537 0.120178 11.7744 0.120178C5.39509 0.120178 0.223633 5.29164 0.223633 11.671C0.223633 18.0503 5.39509 23.2217 11.7744 23.2217ZM18.0686 11.3268H18.3363C18.4285 11.3268 18.5169 11.3634 18.5821 11.4286C18.6473 11.4938 18.6839 11.5822 18.6839 11.6744C18.6839 11.7666 18.6473 11.8551 18.5821 11.9203C18.5169 11.9855 18.4285 12.0221 18.3363 12.0221H18.072V14.3652C18.0724 14.6647 17.9541 14.9522 17.743 15.1646C17.5318 15.377 17.2451 15.4971 16.9457 15.4986H16.5076V15.7558C16.5076 16.0555 16.3886 16.3429 16.1767 16.5548C15.9648 16.7666 15.6774 16.8857 15.3778 16.8857C15.0781 16.8857 14.7907 16.7666 14.5788 16.5548C14.3669 16.3429 14.2479 16.0555 14.2479 15.7558V12.0221H9.30434V15.7558C9.30434 16.0555 9.1853 16.3429 8.97341 16.5548C8.76153 16.7666 8.47414 16.8857 8.17448 16.8857C7.87483 16.8857 7.58744 16.7666 7.37555 16.5548C7.16366 16.3429 7.04463 16.0555 7.04463 15.7558V15.4986H6.60311C6.45466 15.4984 6.3077 15.4689 6.17067 15.4118C6.03364 15.3547 5.90923 15.2711 5.80458 15.1658C5.69993 15.0605 5.6171 14.9356 5.56084 14.7982C5.50458 14.6608 5.476 14.5137 5.47673 14.3652V12.0221H5.21252C5.12031 12.0221 5.03189 11.9855 4.96669 11.9203C4.90149 11.8551 4.86487 11.7666 4.86487 11.6744C4.86487 11.5822 4.90149 11.4938 4.96669 11.4286C5.03189 11.3634 5.12031 11.3268 5.21252 11.3268H5.47673V8.97668C5.47673 8.67794 5.5954 8.39144 5.80664 8.1802C6.01788 7.96897 6.30438 7.85029 6.60311 7.85029H7.04115V7.58608C7.04115 7.28642 7.16019 6.99904 7.37208 6.78715C7.58397 6.57526 7.87135 6.45622 8.17101 6.45622C8.47066 6.45622 8.75805 6.57526 8.96994 6.78715C9.18183 6.99904 9.30087 7.28642 9.30087 7.58608V11.3268H14.2444V7.58608C14.2444 7.28642 14.3635 6.99904 14.5754 6.78715C14.7872 6.57526 15.0746 6.45622 15.3743 6.45622C15.6739 6.45622 15.9613 6.57526 16.1732 6.78715C16.3851 6.99904 16.5041 7.28642 16.5041 7.58608V7.85029H16.9422C17.2406 7.85139 17.5264 7.97042 17.7374 8.18142C17.9484 8.39242 18.0675 8.67828 18.0686 8.97668V11.3268Z" fill="#DDDDDD"/>
</svg>
