<svg width="84" height="25" viewBox="0 0 84 25" fill="none" xmlns="http://www.w3.org/2000/svg">
<path d="M31.3279 17.3854V16.4014H33.8479C34.3279 16.4014 34.7039 16.2614 34.9759 15.9814C35.2479 15.6934 35.3839 15.3494 35.3839 14.9494C35.3839 14.6774 35.3239 14.4334 35.2039 14.2174C35.0839 13.9934 34.9079 13.8174 34.6759 13.6894C34.4519 13.5614 34.1879 13.4974 33.8839 13.4974H31.3279V12.5134H33.7159C34.1159 12.5134 34.4319 12.4094 34.6639 12.2014C34.9039 11.9854 35.0239 11.6774 35.0239 11.2774C35.0239 10.8774 34.8999 10.5734 34.6519 10.3654C34.4039 10.1494 34.0759 10.0414 33.6679 10.0414H31.3279V9.05738H33.6919C34.2359 9.05738 34.6879 9.15738 35.0479 9.35738C35.4159 9.54938 35.6919 9.80538 35.8759 10.1254C36.0679 10.4454 36.1639 10.7974 36.1639 11.1814C36.1639 11.6294 36.0399 12.0214 35.7919 12.3574C35.5519 12.6934 35.1959 12.9574 34.7239 13.1494L34.8199 12.7894C35.3559 12.9814 35.7719 13.2734 36.0679 13.6654C36.3719 14.0494 36.5239 14.5054 36.5239 15.0334C36.5239 15.4734 36.4159 15.8694 36.1999 16.2214C35.9839 16.5734 35.6719 16.8574 35.2639 17.0734C34.8639 17.2814 34.3719 17.3854 33.7879 17.3854H31.3279ZM30.5719 17.3854V9.05738H31.6999V17.3854H30.5719ZM40.4965 17.5054C39.9285 17.5054 39.4165 17.3774 38.9605 17.1214C38.5045 16.8574 38.1445 16.5014 37.8805 16.0534C37.6165 15.6054 37.4845 15.0974 37.4845 14.5294C37.4845 13.9694 37.6125 13.4654 37.8685 13.0174C38.1325 12.5694 38.4845 12.2174 38.9245 11.9614C39.3725 11.6974 39.8725 11.5654 40.4245 11.5654C40.9525 11.5654 41.4165 11.6854 41.8165 11.9254C42.2245 12.1654 42.5405 12.4974 42.7645 12.9214C42.9965 13.3454 43.1125 13.8254 43.1125 14.3614C43.1125 14.4414 43.1085 14.5294 43.1005 14.6254C43.0925 14.7134 43.0765 14.8174 43.0525 14.9374H38.2405V14.0374H42.4765L42.0805 14.3854C42.0805 14.0014 42.0125 13.6774 41.8765 13.4134C41.7405 13.1414 41.5485 12.9334 41.3005 12.7894C41.0525 12.6374 40.7525 12.5614 40.4005 12.5614C40.0325 12.5614 39.7085 12.6414 39.4285 12.8014C39.1485 12.9614 38.9325 13.1854 38.7805 13.4734C38.6285 13.7614 38.5525 14.1014 38.5525 14.4934C38.5525 14.8934 38.6325 15.2454 38.7925 15.5494C38.9525 15.8454 39.1805 16.0774 39.4765 16.2454C39.7725 16.4054 40.1125 16.4854 40.4965 16.4854C40.8165 16.4854 41.1085 16.4294 41.3725 16.3174C41.6445 16.2054 41.8765 16.0374 42.0685 15.8134L42.7645 16.5214C42.4925 16.8414 42.1565 17.0854 41.7565 17.2534C41.3645 17.4214 40.9445 17.5054 40.4965 17.5054ZM48.322 17.3854V14.0614C48.322 13.6294 48.186 13.2734 47.914 12.9934C47.642 12.7134 47.29 12.5734 46.858 12.5734C46.57 12.5734 46.314 12.6374 46.09 12.7654C45.866 12.8934 45.69 13.0694 45.562 13.2934C45.434 13.5174 45.37 13.7734 45.37 14.0614L44.926 13.8094C44.926 13.3774 45.022 12.9934 45.214 12.6574C45.406 12.3214 45.674 12.0574 46.018 11.8654C46.362 11.6654 46.75 11.5654 47.182 11.5654C47.614 11.5654 47.994 11.6614 48.322 11.8534C48.658 12.0454 48.922 12.3134 49.114 12.6574C49.306 13.0014 49.402 13.3974 49.402 13.8454V17.3854H48.322ZM44.29 17.3854V8.81738H45.37V17.3854H44.29ZM53.5043 17.5054C52.9363 17.5054 52.4243 17.3774 51.9683 17.1214C51.5123 16.8574 51.1523 16.5014 50.8883 16.0534C50.6243 15.6054 50.4923 15.0974 50.4923 14.5294C50.4923 13.9694 50.6203 13.4654 50.8763 13.0174C51.1403 12.5694 51.4923 12.2174 51.9323 11.9614C52.3803 11.6974 52.8803 11.5654 53.4323 11.5654C53.9603 11.5654 54.4243 11.6854 54.8243 11.9254C55.2323 12.1654 55.5483 12.4974 55.7723 12.9214C56.0043 13.3454 56.1203 13.8254 56.1203 14.3614C56.1203 14.4414 56.1163 14.5294 56.1083 14.6254C56.1003 14.7134 56.0843 14.8174 56.0603 14.9374H51.2483V14.0374H55.4843L55.0883 14.3854C55.0883 14.0014 55.0203 13.6774 54.8843 13.4134C54.7483 13.1414 54.5563 12.9334 54.3083 12.7894C54.0603 12.6374 53.7603 12.5614 53.4083 12.5614C53.0403 12.5614 52.7163 12.6414 52.4363 12.8014C52.1563 12.9614 51.9403 13.1854 51.7883 13.4734C51.6363 13.7614 51.5603 14.1014 51.5603 14.4934C51.5603 14.8934 51.6403 15.2454 51.8003 15.5494C51.9603 15.8454 52.1883 16.0774 52.4843 16.2454C52.7803 16.4054 53.1203 16.4854 53.5043 16.4854C53.8243 16.4854 54.1163 16.4294 54.3803 16.3174C54.6523 16.2054 54.8843 16.0374 55.0763 15.8134L55.7723 16.5214C55.5003 16.8414 55.1643 17.0854 54.7643 17.2534C54.3723 17.4214 53.9523 17.5054 53.5043 17.5054ZM59.7219 17.5054C59.2019 17.5054 58.7299 17.3774 58.3059 17.1214C57.8819 16.8574 57.5459 16.5014 57.2979 16.0534C57.0579 15.6054 56.9379 15.1014 56.9379 14.5414C56.9379 13.9814 57.0579 13.4774 57.2979 13.0294C57.5459 12.5814 57.8779 12.2254 58.2939 11.9614C58.7179 11.6974 59.1939 11.5654 59.7219 11.5654C60.1539 11.5654 60.5379 11.6574 60.8739 11.8414C61.2179 12.0174 61.4939 12.2654 61.7019 12.5854C61.9099 12.8974 62.0259 13.2614 62.0499 13.6774V15.3934C62.0259 15.8014 61.9099 16.1654 61.7019 16.4854C61.5019 16.8054 61.2299 17.0574 60.8859 17.2414C60.5499 17.4174 60.1619 17.5054 59.7219 17.5054ZM59.9019 16.4854C60.4379 16.4854 60.8699 16.3054 61.1979 15.9454C61.5259 15.5774 61.6899 15.1094 61.6899 14.5414C61.6899 14.1494 61.6139 13.8094 61.4619 13.5214C61.3179 13.2254 61.1099 12.9974 60.8379 12.8374C60.5659 12.6694 60.2499 12.5854 59.8899 12.5854C59.5299 12.5854 59.2099 12.6694 58.9299 12.8374C58.6579 13.0054 58.4419 13.2374 58.2819 13.5334C58.1299 13.8214 58.0539 14.1534 58.0539 14.5294C58.0539 14.9134 58.1299 15.2534 58.2819 15.5494C58.4419 15.8374 58.6619 16.0654 58.9419 16.2334C59.2219 16.4014 59.5419 16.4854 59.9019 16.4854ZM61.6179 17.3854V15.8494L61.8219 14.4574L61.6179 13.0774V11.6854H62.7099V17.3854H61.6179ZM64.2822 17.3854V8.81738H65.3622V17.3854H64.2822ZM67.8184 17.3854V9.29738H68.8984V17.3854H67.8184ZM66.4144 12.6694V11.6854H70.3024V12.6694H66.4144ZM75.3924 17.3854V14.0614C75.3924 13.6294 75.2564 13.2734 74.9844 12.9934C74.7124 12.7134 74.3604 12.5734 73.9284 12.5734C73.6404 12.5734 73.3844 12.6374 73.1604 12.7654C72.9364 12.8934 72.7604 13.0694 72.6324 13.2934C72.5044 13.5174 72.4404 13.7734 72.4404 14.0614L71.9964 13.8094C71.9964 13.3774 72.0924 12.9934 72.2844 12.6574C72.4764 12.3214 72.7444 12.0574 73.0884 11.8654C73.4324 11.6654 73.8204 11.5654 74.2524 11.5654C74.6844 11.5654 75.0644 11.6614 75.3924 11.8534C75.7284 12.0454 75.9924 12.3134 76.1844 12.6574C76.3764 13.0014 76.4724 13.3974 76.4724 13.8454V17.3854H75.3924ZM71.3604 17.3854V8.81738H72.4404V17.3854H71.3604ZM79.8066 17.4334L77.3346 11.6854H78.5346L80.3706 16.1854H79.9866L81.9186 11.6854H83.1186L80.4546 17.4334H79.8066ZM78.1746 19.7734L79.8546 16.3294L80.4546 17.4334L79.3746 19.7734H78.1746Z" fill="#DDDDDD"/>
<path d="M24.5368 12.8854C24.5368 19.5265 19.1531 24.9102 12.512 24.9102C5.8709 24.9102 0.487213 19.5265 0.487213 12.8854C0.487213 6.24428 5.8709 0.860596 12.512 0.860596C19.1531 0.860596 24.5368 6.24428 24.5368 12.8854Z" fill="#3A3A3A"/>
<path d="M7.13211 16.1462H7.58812V9.63177H7.13211C7.01326 9.63234 6.89945 9.6798 6.81541 9.76384C6.73137 9.84788 6.6839 9.96169 6.68333 10.0805V15.6902C6.68286 15.7496 6.69409 15.8086 6.71638 15.8636C6.73868 15.9187 6.7716 15.9688 6.81327 16.0112C6.85495 16.0535 6.90455 16.0873 6.95926 16.1104C7.01396 16.1336 7.0727 16.1458 7.13211 16.1462Z" fill="#DDDDDD"/>
<path d="M9.08234 17.4595C9.16769 17.3741 9.21598 17.2586 9.21674 17.1379V8.63288C9.21447 8.51332 9.16547 8.39939 9.08024 8.31551C8.995 8.23163 8.88031 8.18446 8.76073 8.18411C8.64188 8.18468 8.52806 8.23214 8.44403 8.31618C8.35999 8.40022 8.31252 8.51403 8.31195 8.63288V17.1379C8.31148 17.1973 8.3227 17.2562 8.345 17.3113C8.36729 17.3664 8.40022 17.4165 8.44189 17.4588C8.48356 17.5012 8.53317 17.5349 8.58788 17.5581C8.64258 17.5813 8.70132 17.5934 8.76073 17.5939C8.88144 17.5931 8.99698 17.5449 9.08234 17.4595Z" fill="#DDDDDD"/>
<path d="M16.5831 17.4578C16.668 17.3729 16.7156 17.2579 16.7156 17.1379V8.63288C16.7156 8.5129 16.668 8.39783 16.5831 8.31299C16.4983 8.22815 16.3832 8.18049 16.2632 8.18049C16.1432 8.18049 16.0282 8.22815 15.9433 8.31299C15.8585 8.39783 15.8108 8.5129 15.8108 8.63288V17.1379C15.8108 17.2579 15.8585 17.3729 15.9433 17.4578C16.0282 17.5426 16.1432 17.5903 16.2632 17.5903C16.3832 17.5903 16.4983 17.5426 16.5831 17.4578Z" fill="#DDDDDD"/>
<path d="M18.3112 15.8636C18.3335 15.8086 18.3447 15.7496 18.3442 15.6902V10.0805C18.3437 9.96169 18.2962 9.84788 18.2122 9.76384C18.1281 9.6798 18.0143 9.63234 17.8955 9.63177H17.4395V16.1462H17.8955C17.9549 16.1458 18.0136 16.1336 18.0683 16.1104C18.123 16.0873 18.1726 16.0535 18.2143 16.0112C18.256 15.9688 18.2889 15.9187 18.3112 15.8636Z" fill="#DDDDDD"/>
<path fill-rule="evenodd" clip-rule="evenodd" d="M12.512 24.9102C19.1531 24.9102 24.5368 19.5265 24.5368 12.8854C24.5368 6.24428 19.1531 0.860596 12.512 0.860596C5.8709 0.860596 0.487213 6.24428 0.487213 12.8854C0.487213 19.5265 5.8709 24.9102 12.512 24.9102ZM19.0645 12.5271H19.3431C19.4391 12.5271 19.5312 12.5652 19.599 12.6331C19.6669 12.701 19.705 12.793 19.705 12.889C19.705 12.985 19.6669 13.077 19.599 13.1449C19.5312 13.2128 19.4391 13.2509 19.3431 13.2509H19.0681V15.6902C19.0685 16.002 18.9453 16.3012 18.7255 16.5224C18.5057 16.7435 18.2072 16.8685 17.8955 16.8701H17.4395V17.1379C17.4395 17.4498 17.3155 17.749 17.0949 17.9696C16.8744 18.1902 16.5752 18.3141 16.2632 18.3141C15.9513 18.3141 15.6521 18.1902 15.4315 17.9696C15.2109 17.749 15.087 17.4498 15.087 17.1379V13.2509H9.94057V17.1379C9.94057 17.4498 9.81665 17.749 9.59606 17.9696C9.37548 18.1902 9.0763 18.3141 8.76435 18.3141C8.45239 18.3141 8.15321 18.1902 7.93263 17.9696C7.71204 17.749 7.58812 17.4498 7.58812 17.1379V16.8701H7.12849C6.97394 16.8699 6.82096 16.8392 6.6783 16.7797C6.53565 16.7203 6.40613 16.6333 6.29719 16.5236C6.18825 16.414 6.10202 16.284 6.04345 16.141C5.98488 15.9979 5.95512 15.8448 5.95588 15.6902V13.2509H5.68083C5.58484 13.2509 5.49279 13.2128 5.42491 13.1449C5.35704 13.077 5.31891 12.985 5.31891 12.889C5.31891 12.793 5.35704 12.701 5.42491 12.6331C5.49279 12.5652 5.58484 12.5271 5.68083 12.5271H5.95588V10.0805C5.95588 9.76955 6.07943 9.47129 6.29933 9.25138C6.51924 9.03148 6.81749 8.90794 7.12849 8.90794H7.5845V8.63288C7.5845 8.32093 7.70843 8.02175 7.92901 7.80116C8.1496 7.58058 8.44877 7.45666 8.76073 7.45666C9.07268 7.45666 9.37186 7.58058 9.59244 7.80116C9.81303 8.02175 9.93695 8.32093 9.93695 8.63288V12.5271H15.0834V8.63288C15.0834 8.32093 15.2073 8.02175 15.4279 7.80116C15.6485 7.58058 15.9477 7.45666 16.2596 7.45666C16.5716 7.45666 16.8707 7.58058 17.0913 7.80116C17.3119 8.02175 17.4358 8.32093 17.4358 8.63288V8.90794H17.8919C18.2025 8.90908 18.5001 9.03299 18.7197 9.25265C18.9394 9.47231 19.0633 9.7699 19.0645 10.0805V12.5271Z" fill="#DDDDDD"/>
</svg>
