<svg width="25" height="25" viewBox="0 0 25 25" fill="none" xmlns="http://www.w3.org/2000/svg">
<path d="M24.2386 12.5923C24.2386 19.2334 18.8549 24.6171 12.2138 24.6171C5.57265 24.6171 0.188965 19.2334 0.188965 12.5923C0.188965 5.95119 5.57265 0.567505 12.2138 0.567505C18.8549 0.567505 24.2386 5.95119 24.2386 12.5923Z" fill="#202020"/>
<path d="M6.83386 15.8532H7.28987V9.33868H6.83386C6.71501 9.33925 6.6012 9.38671 6.51716 9.47075C6.43312 9.55479 6.38566 9.6686 6.38508 9.78745V15.3971C6.38461 15.4565 6.39584 15.5155 6.41813 15.5705C6.44043 15.6256 6.47335 15.6757 6.51502 15.7181C6.5567 15.7604 6.6063 15.7942 6.66101 15.8173C6.71572 15.8405 6.77445 15.8527 6.83386 15.8532Z" fill="#4AFF52"/>
<path d="M8.78409 17.1664C8.86944 17.0811 8.91773 16.9655 8.91849 16.8448V8.33979C8.91622 8.22023 8.86722 8.1063 8.78199 8.02242C8.69676 7.93854 8.58206 7.89137 8.46248 7.89101C8.34363 7.89159 8.22982 7.93905 8.14578 8.02309C8.06174 8.10713 8.01427 8.22094 8.0137 8.33979V16.8448C8.01323 16.9042 8.02446 16.9631 8.04675 17.0182C8.06905 17.0733 8.10197 17.1234 8.14364 17.1658C8.18532 17.2081 8.23492 17.2418 8.28963 17.265C8.34433 17.2882 8.40307 17.3003 8.46248 17.3008C8.58319 17.3001 8.69874 17.2518 8.78409 17.1664Z" fill="#4AFF52"/>
<path d="M16.2849 17.1647C16.3697 17.0799 16.4174 16.9648 16.4174 16.8448V8.33979C16.4174 8.21981 16.3697 8.10474 16.2849 8.0199C16.2 7.93506 16.085 7.8874 15.965 7.8874C15.845 7.8874 15.7299 7.93506 15.6451 8.0199C15.5603 8.10474 15.5126 8.21981 15.5126 8.33979V16.8448C15.5126 16.9648 15.5603 17.0799 15.6451 17.1647C15.7299 17.2495 15.845 17.2972 15.965 17.2972C16.085 17.2972 16.2 17.2495 16.2849 17.1647Z" fill="#4AFF52"/>
<path d="M18.013 15.5705C18.0352 15.5155 18.0465 15.4565 18.046 15.3971V9.78745C18.0454 9.6686 17.998 9.55479 17.9139 9.47075C17.8299 9.38671 17.7161 9.33925 17.5972 9.33868H17.1412V15.8532H17.5972C17.6566 15.8527 17.7154 15.8405 17.7701 15.8173C17.8248 15.7942 17.8744 15.7604 17.9161 15.7181C17.9577 15.6757 17.9907 15.6256 18.013 15.5705Z" fill="#4AFF52"/>
<path fill-rule="evenodd" clip-rule="evenodd" d="M12.2138 24.6171C18.8549 24.6171 24.2386 19.2334 24.2386 12.5923C24.2386 5.95119 18.8549 0.567505 12.2138 0.567505C5.57265 0.567505 0.188965 5.95119 0.188965 12.5923C0.188965 19.2334 5.57265 24.6171 12.2138 24.6171ZM18.7662 12.234H19.0449C19.1409 12.234 19.2329 12.2721 19.3008 12.34C19.3687 12.4079 19.4068 12.4999 19.4068 12.5959C19.4068 12.6919 19.3687 12.784 19.3008 12.8518C19.2329 12.9197 19.1409 12.9578 19.0449 12.9578H18.7698V15.3971C18.7702 15.7089 18.647 16.0081 18.4272 16.2293C18.2075 16.4504 17.909 16.5755 17.5972 16.577H17.1412V16.8448C17.1412 17.1568 17.0173 17.4559 16.7967 17.6765C16.5761 17.8971 16.2769 18.021 15.965 18.021C15.653 18.021 15.3539 17.8971 15.1333 17.6765C14.9127 17.4559 14.7888 17.1568 14.7888 16.8448V12.9578H9.64232V16.8448C9.64232 17.1568 9.5184 17.4559 9.29782 17.6765C9.07723 17.8971 8.77805 18.021 8.4661 18.021C8.15414 18.021 7.85497 17.8971 7.63438 17.6765C7.4138 17.4559 7.28987 17.1568 7.28987 16.8448V16.577H6.83024C6.6757 16.5768 6.52271 16.5461 6.38005 16.4866C6.2374 16.4272 6.10789 16.3402 5.99894 16.2306C5.89 16.1209 5.80377 15.9909 5.7452 15.8479C5.68663 15.7049 5.65687 15.5517 5.65764 15.3971V12.9578H5.38258C5.28659 12.9578 5.19454 12.9197 5.12667 12.8518C5.05879 12.784 5.02066 12.6919 5.02066 12.5959C5.02066 12.4999 5.05879 12.4079 5.12667 12.34C5.19454 12.2721 5.28659 12.234 5.38258 12.234H5.65764V9.78745C5.65764 9.47646 5.78118 9.1782 6.00108 8.95829C6.22099 8.73839 6.51925 8.61485 6.83024 8.61485H7.28625V8.33979C7.28625 8.02783 7.41018 7.72866 7.63076 7.50807C7.85135 7.28749 8.15052 7.16356 8.46248 7.16356C8.77443 7.16356 9.07361 7.28749 9.2942 7.50807C9.51478 7.72866 9.6387 8.02783 9.6387 8.33979V12.234H14.7851V8.33979C14.7851 8.02783 14.9091 7.72866 15.1296 7.50807C15.3502 7.28749 15.6494 7.16356 15.9614 7.16356C16.2733 7.16356 16.5725 7.28749 16.7931 7.50807C17.0137 7.72866 17.1376 8.02783 17.1376 8.33979V8.61485H17.5936C17.9042 8.61599 18.2018 8.7399 18.4215 8.95956C18.6412 9.17922 18.7651 9.47681 18.7662 9.78745V12.234Z" fill="#4AFF52"/>
</svg>
